<svg xmlns="http://www.w3.org/2000/svg" viewBox="0 0 1024 1024"><defs><style>.cls-1{fill:#00cd52;}.cls-2{fill:#fff;}</style></defs><g id="Calque_2" data-name="Calque 2"><g id="Calque_4" data-name="Calque 4"><g id="fond"><rect class="cls-1" width="1024" height="1024"/></g><g id="Calque_3" data-name="Calque 3"><path class="cls-2" d="M655.5,712.4c-9.65,1.12-163.82,16.44-248.14-96.43C321.42,500.91,359.64,321.7,460,243.57c152-118.26,441.21-.89,470.63,161.54C953.87,533.31,816,693.84,655.5,712.4Z"/></g><g id="Calque_2-2" data-name="Calque 2"><path class="cls-1" d="M882.57,415.86c-8.59,4.29-24.67,9.62-29.57,3.85-6.37-7.49,4.42-35.83,19.81-44.54,1.44-.82,4.62-2.42,4.46-4.26-.39-4.48-20.15-6.08-21.12-6.16-20.87-1.68-40.37,9.54-66.15,29.25-33.52,25.63-50.28,38.44-65.57,59.14,0,0-36.67,49.63-40.34,117.1-.7,12.88,0,24.34,6.91,34.62,12.85,19,38.7,21.4,47.23,22.19,10.66,1,34.8,1.37,89.06-29.91,46.62-26.87,65-48,68.14-45,4.42,4.22-22.83,54-73.32,82.91-14,8-44.29,24.84-85.93,22.14A144.55,144.55,0,0,1,664,631.86a182.84,182.84,0,0,1-16.71-60.43C640.56,500.9,678.34,447.85,692,428.71c29.64-41.61,64-62.43,80-72,26-15.51,79.54-47.51,120.54-27.32,4.27,2.11,20,10.13,24.75,26C924.26,378.73,903.68,405.32,882.57,415.86Z"/><path class="cls-2" d="M344.11,382.86c12.07,53.61,37.39,99,50.49,128.91,7.94,18.09,11.4,30.47,4.69,35.48-5.74,4.28-16.75,1.55-23.14-2.57-11-7.07-12.79-21.07-13.17-24.93L311.5,393,307,379.06l-44,170v61.16l-19.8,13.68-20.06-48.4,31.13-122.95c9.12-34.55,27.89-105.71,27.89-105.71-3.69,3.82,6.85-8.47,11.49-11.08,9.1-5.11,22,1.72,24.2,2.87C336.8,348.68,342.17,374.26,344.11,382.86Z"/><path class="cls-2" d="M136.32,348.76c3.12-4.57,10.85-15.87,21.13-14.77,9.71,1,15.11,12.45,15.79,13.95l-30,142.31-7,47-26.45-5.74a302.8,302.8,0,0,1,.92-33c1-12.29,2.48-20.84,4.21-31.17,7.45-44.48,11.17-66.72,11.57-70.72C129.07,371.51,127.61,361.5,136.32,348.76Z"/><path class="cls-2" d="M108.57,588.14c10.56-3.78,23.94.86,27.75,10,2.9,6.94-.7,14.13-2.87,18.46-.65,1.3-11,21.41-24.81,18.66-8.86-1.77-14.15-12-15.18-19.89C92.12,605.06,97.16,592.23,108.57,588.14Z"/><path class="cls-1" d="M372.27,504.25q78.56-104.79,157.09-209.59l28.51,10.26a63.29,63.29,0,0,1-8.82,35.48c-5.72,9.93-10.73,81.86-13.62,267l15.77,5.41c1.64,3.86,3.88,11.07.94,17.73-6,13.65-30,16.59-41.14,7.72-5.47-4.35-7-10.85-7.71-14.15-10.51-47.71-8.79-67-8.79-67,3.17-35.59,8.08-90.19,16.61-158.32l1-18.25-129.71,169c-3.06-3.25-12.92-14.55-12.86-30.86A41.46,41.46,0,0,1,372.27,504.25Z"/></g></g></g></svg>